# xmcd
#
# Track frame offsets: 
#        150
#        11046
#        21401
#        29425
#        39172
#        48607
#        59783
#        70473
#        82722
#        89739
#
# Disc length: 1326 seconds
#
# Revision: 0
# Processed by: cddbd v1.4PL0 Copyright (c) Steve Scherf et al.
# Submitted via: ExactAudioCopy v0.90b3
#
DISCID=87052c0a
DTITLE=George Jones - Country Music Of Famer
DYEAR=1900
DGENRE=Country
TTITLE0=Accidently On Purpose
TTITLE1=Window Up Above
TTITLE2=I'm A One Woman Man
TTITLE3=Heartbreak Hotel
TTITLE4=Sweet Dreams
TTITLE5=One Is A Lonely Number
TTITLE6=You're In My Heart
TTITLE7=I'll Take The Change
TTITLE8=Any Old Time
TTITLE9=Wasted Words
EXTD=
EXTT0=
EXTT1=
EXTT2=
EXTT3=
EXTT4=
EXTT5=
EXTT6=
EXTT7=
EXTT8=
EXTT9=
PLAYORDER=
